HIERARCHY
ROOT Hips
{
  OFFSET -331.093 83.8371 -317.828
  CHANNELS 6 Xposition Yposition Zposition Zrotation Xrotation Yrotation
  JOINT LeftUpLeg
  {
    OFFSET 8.64259 1.95398 -2.38835
    CHANNELS 3 Zrotation Xrotation Yrotation
    JOINT LeftLeg
    {
      OFFSET 43.7702 0 0
      CHANNELS 3 Zrotation Xrotation Yrotation
      JOINT LeftFoot
      {
        OFFSET 40.6238 0 0
        CHANNELS 3 Zrotation Xrotation Yrotation
        JOINT LeftToeBase
        {
          OFFSET 12.7242 0 0
          CHANNELS 3 Zrotation Xrotation Yrotation
          End Site
          {
            OFFSET 0 0 0
          }
        }
      }
    }
  }
  JOINT RightUpLeg
  {
    OFFSET -8.2249 1.95398 -2.59336
    CHANNELS 3 Zrotation Xrotation Yrotation
    JOINT RightLeg
    {
      OFFSET 43.5653 0 0
      CHANNELS 3 Zrotation Xrotation Yrotation
      JOINT RightFoot
      {
        OFFSET 40.6238 0 0
        CHANNELS 3 Zrotation Xrotation Yrotation
        JOINT RightToeBase
        {
          OFFSET 12.7242 0 0
          CHANNELS 3 Zrotation Xrotation Yrotation
          End Site
          {
            OFFSET 0 0 0
          }
        }
      }
    }
  }
  JOINT Spine
  {
    OFFSET 0.165834 0.87714 6.61349
    CHANNELS 3 Zrotation Xrotation Yrotation
    JOINT Spine1
    {
      OFFSET 7.38963 1.71661e-005 0
      CHANNELS 3 Zrotation Xrotation Yrotation
      JOINT Spine2
      {
        OFFSET 11.9445 1.14441e-005 0
        CHANNELS 3 Zrotation Xrotation Yrotation
        JOINT Spine3
        {
          OFFSET 14.7254 4.19617e-005 0
          CHANNELS 3 Zrotation Xrotation Yrotation
          JOINT Spine4
          {
            OFFSET 10.9679 0 0
            CHANNELS 3 Zrotation Xrotation Yrotation
            JOINT RightShoulder
            {
              OFFSET 2.46616 -1.6653 3.69651
              CHANNELS 3 Zrotation Xrotation Yrotation
              JOINT RightArm
              {
                OFFSET 13.0012 0 0
                CHANNELS 3 Zrotation Xrotation Yrotation
                JOINT RightForeArm
                {
                  OFFSET 28.7848 1.62311e-005 0
                  CHANNELS 3 Zrotation Xrotation Yrotation
                  JOINT RightHand
                  {
                    OFFSET 26.5688 1.62095e-005 0
                    CHANNELS 3 Zrotation Xrotation Yrotation
                    End Site
                    {
                      OFFSET 0 0 0
                    }
                  }
                }
              }
            }
            JOINT LeftShoulder
            {
              OFFSET 2.38034 -1.29275 -3.7523
              CHANNELS 3 Zrotation Xrotation Yrotation
              JOINT LeftArm
              {
                OFFSET 16.3182 6.07031e-005 0
                CHANNELS 3 Zrotation Xrotation Yrotation
                JOINT LeftForeArm
                {
                  OFFSET 27.0901 0 0
                  CHANNELS 3 Zrotation Xrotation Yrotation
                  JOINT LeftHand
                  {
                    OFFSET 24.5451 1.51738e-005 0
                    CHANNELS 3 Zrotation Xrotation Yrotation
                    End Site
                    {
                      OFFSET 0 0 0
                    }
                  }
                }
              }
            }
            JOINT Neck
            {
              OFFSET 5.0226 -0.0266342 0
              CHANNELS 3 Zrotation Xrotation Yrotation
              JOINT Head
              {
                OFFSET 6.69364 2.86102e-005 0
                CHANNELS 3 Zrotation Xrotation Yrotation
                End Site
                {
                  OFFSET 0 0 0
                }
              }
            }
          }
        }
      }
    }
  }
}
MOTION
Frames:	7
Frame Time:	0.0416667
-77.96 44.5399 14.6848 42.0356 3.24929 83.8108 -171.388 35.468 99.2118 -87.9256 18.2931 1.87311 60.6411 2.95297 7.34212 44.1329 39.6153 44.0614 132.377 76.5532 140.467 -134.882 2.53682 -3.53567 62.0163 -2.6559 -3.374 54.7453 4.62146 14.179 -0.209661 9.5889 -91.1125 7.68268 -0.902417 -2.14916 -3.98966 -0.996115 -2.10738 -26.5109 -0.214983 -2.32092 -6.49823 -0.214976 -2.32091 96.8655 -3.46198 -101.05 -0.300065 24.8961 -46.7888 -18.1183 -14.7305 -43.2883 -39.5057 -5.04556 9.71579 -90.5205 -24.3073 70.5442 29.3003 -27.0988 -43.9563 0.443435 5.38986 -23.5545 25.4122 1.58747 2.49508 -1.02497 -12.9547 0.333152 32.7703 -16.3022 -12.3453 
-78.8194 44.9612 16.417 45.6225 6.11601 81.9659 -174.547 34.8893 99.4916 -89.6765 20.5697 2.73392 59.0286 0.640991 4.90033 38.7031 32.6512 46.4686 133.553 74.3887 137.054 -135.243 4.04386 -3.73499 62.736 -3.37726 -3.86389 55.8171 2.32221 7.69261 -0.0907295 9.6088 -91.1842 7.64363 -0.695693 -2.30163 -4.02912 -0.796295 -2.26882 -26.5479 0.0279803 -2.40426 -6.53525 0.0279705 -2.40427 96.1932 -4.60152 -102.686 -0.816718 24.8929 -42.9632 -19.9104 -16.6338 -43.0581 -37.6173 -4.78994 9.79675 -92.0718 -27.5714 68.8557 26.3993 -23.5537 -44.4432 2.64094 6.30543 -33.1352 26.2896 1.80923 3.02972 -2.10925 -14.5754 1.40427 32.7262 -17.6478 -11.1722 
-79.8565 45.4058 17.4722 49.3629 9.35238 79.5836 -177.648 36.1753 99.1913 -93.0317 21.569 3.47775 57.1679 -1.64052 2.5975 36.5656 24.9795 41.0422 139.677 74.5484 127.851 -136.107 3.44414 -3.70061 62.1596 -3.4162 -4.05387 54.9576 4.66962 14.2399 0.0470919 9.61652 -91.2622 7.62931 -0.454316 -2.46786 -4.04386 -0.562442 -2.44549 -26.5603 0.308122 -2.49032 -6.54766 0.308153 -2.49033 95.455 -5.57015 -104.506 -3.47319 24.6929 -37.6669 -18.4102 -16.3341 -39.8485 -35.329 -4.34255 9.31521 -94.552 -32.2934 66.2759 22.9475 -15.9026 -40.4293 6.92092 5.93482 -48.3278 25.4686 2.02831 4.1637 -2.19451 -16.9161 2.66002 32.0699 -19.7649 -10.4013 
-81.0843 45.8639 18.4652 53.7022 13.0616 77.1952 -179.085 40.1932 99.8231 -98.7344 21.4915 3.71592 55.8476 -2.15527 3.88726 43.1888 25.4198 27.7301 143.711 73.8625 120.028 -136.694 1.87833 -3.70793 60.981 -2.99784 -3.94438 51.3188 4.45965 14.8937 0.276396 9.54237 -91.241 7.78271 0.0110935 -2.45055 -3.89054 -0.0967234 -2.44868 -26.4085 0.746886 -2.33405 -6.39579 0.74687 -2.33406 94.6244 -8.89024 -105.085 -8.52115 22.8996 -31.6029 -17.0346 -16.8415 -36.127 -30.1627 -4.04108 10.7451 -98.089 -37.5657 62.5016 21.4128 -3.94601 -32.8057 11.8058 3.35868 -62.8273 21.9655 1.90119 4.8114 -3.50906 -19.31 0.435152 31.9284 -21.107 -8.04978 
-82.6448 46.5513 19.5092 58.5624 17.6069 74.4445 -179.149 47.0212 100.324 -103.878 14.4524 3.93511 57.1274 0.0882924 7.28735 48.2157 26.9663 20.9128 142.948 72.482 115.573 -136.456 3.01078 -3.99095 59.0064 -2.53221 -3.79807 53.2698 5.16049 16.2458 0.326945 9.59991 -91.0898 7.67091 0.178948 -2.16105 -4.00184 0.0837048 -2.16684 -26.5242 0.820042 -2.00747 -6.51154 0.820036 -2.00749 94.4219 -10.5527 -104.778 -13.2132 19.4279 -26.3141 -13.6132 -17.8238 -31.3178 -25.8932 -3.03554 8.85904 -98.9412 -40.4754 62.3871 18.5819 8.77321 -26.0552 15.4252 1.06869 -69.299 16.6624 1.42441 4.66997 -3.25404 -21.4806 -0.510223 30.9955 -22.7499 -7.06938 
-84.0561 47.2969 20.6476 63.8922 20.3292 71.5521 -176.75 54.1013 100.276 -107.531 9.1481 4.05053 59.4555 1.97364 7.68319 48.0327 27.428 21.9032 145.89 70.8879 109.215 -136.524 1.38116 -3.97275 58.3508 -2.52548 -4.12674 53.814 5.53838 17.0815 0.409348 9.75116 -90.8257 7.37223 0.460489 -1.64994 -4.2997 0.387455 -1.66862 -26.8288 0.935027 -1.43534 -6.81616 0.935046 -1.43534 94.2429 -13.6096 -103.715 -12.0332 21.4975 -22.5963 -14.8603 -14.1332 -35.9977 -14.6 -1.58024 7.81769 -99.5122 -42.321 62.2671 13.4935 18.9683 -17.4285 15.7092 0.522549 -68.7635 17.6527 1.70389 5.77483 -6.66491 -22.8077 -3.16106 32.1682 -23.7359 -6.31676 
-85.3387 47.9979 21.4344 68.6328 23.0432 69.635 -172.889 61.8641 98.6931 -110.528 6.20389 4.19288 63.072 4.7717 7.82116 50.9543 27.7395 17.4891 146.936 69.1458 104.854 -136.663 -0.790942 -3.83733 58.1584 -2.55925 -4.569 54.3583 4.26663 13.3161 0.414573 9.87931 -90.571 7.11676 0.582385 -1.15156 -4.55458 0.531141 -1.17608 -27.0879 0.901529 -0.923327 -7.07527 0.901541 -0.923324 93.7392 -18.0729 -103.015 -11.0719 22.7204 -20.4131 -14.7199 -11.3438 -37.5244 -9.80038 -0.90073 5.65064 -99.1591 -42.4891 62.8861 5.90199 23.8384 -7.65017 16.3504 2.754 -65.607 20.3392 2.33888 7.68346 -10.0921 -23.5918 -6.63834 32.6065 -24.2304 -5.44922 
